<svg width="45" height="45" viewBox="0 0 45 45" fill="none" xmlns="http://www.w3.org/2000/svg">
<rect x="0.5625" y="0.5625" width="43.875" height="43.875" rx="7.3125" stroke="white" stroke-width="1.125"/>
<path d="M11.5046 11.9446H18.1287L25.5594 32.6887H19.4934L18.4709 29.5315H10.702L9.67947 32.6887H3.85791L11.5046 11.9446ZM16.8576 24.6062L14.5966 17.6399L12.3356 24.6062H16.8576Z" fill="white"/>
<path d="M41.1461 24.1418C41.1461 24.8832 41.0849 25.6898 40.9912 26.3091H30.8677C31.4869 27.8571 32.9739 28.5986 35.296 28.5986C36.9663 28.5986 38.4247 28.289 39.8791 27.6086L39.9402 31.9106C38.3595 32.7173 36.6566 32.9943 34.4608 32.9943C29.0426 32.9943 25.4209 29.9918 25.4209 24.541C25.4209 19.5546 28.8878 16.2425 33.4709 16.2425C38.054 16.2425 41.1501 19.2776 41.1501 24.1377L41.1461 24.1418ZM30.6843 22.7811H36.1026C35.9804 21.3267 35.0801 20.3042 33.5035 20.3042C31.9269 20.3042 31.0265 21.1108 30.6843 22.7811Z" fill="white"/>
</svg>
