<svg width="45" height="45" viewBox="0 0 45 45" fill="none" xmlns="http://www.w3.org/2000/svg">
<path d="M36.1836 0.5625C40.7421 0.5625 44.4375 4.25794 44.4375 8.81641V36.1836C44.4375 40.7421 40.7421 44.4375 36.1836 44.4375H8.81641C4.25794 44.4375 0.5625 40.7421 0.5625 36.1836V0.5625H36.1836Z" stroke="white" stroke-width="1.125"/>
<path d="M36.4121 40.6378C35.333 40.6378 34.5065 40.3221 33.9325 39.6907C33.3585 39.0593 33.0601 38.1524 33.0371 36.97H35.3617C35.3732 38.0147 35.7406 38.537 36.4638 38.537C36.8311 38.537 37.0894 38.4222 37.2386 38.1926C37.3879 37.963 37.4625 37.5957 37.4625 37.0906C37.4625 36.6888 37.3649 36.3559 37.1698 36.0918C36.9746 35.8278 36.6474 35.5925 36.1883 35.3858L35.3273 34.9726C34.5582 34.6052 34.0014 34.169 33.657 33.6639C33.3241 33.1588 33.1576 32.4528 33.1576 31.5459C33.1576 30.5357 33.4504 29.7149 34.0358 29.0835C34.6328 28.4522 35.4536 28.1365 36.4982 28.1365C37.5084 28.1365 38.289 28.4464 38.84 29.0663C39.4025 29.6862 39.6953 30.5759 39.7182 31.7353H37.4797C37.4682 31.2417 37.3936 30.8744 37.2559 30.6333C37.1296 30.3807 36.8828 30.2545 36.5154 30.2545C35.8611 30.2545 35.5339 30.6448 35.5339 31.4254C35.5339 31.8157 35.6143 32.1256 35.775 32.3552C35.9472 32.5733 36.2284 32.7685 36.6187 32.9407L37.4453 33.3023C38.2948 33.6926 38.9089 34.1747 39.2877 34.7487C39.6666 35.3227 39.856 36.0918 39.856 37.0561C39.856 38.2041 39.5518 39.088 38.9434 39.7079C38.3349 40.3278 37.4912 40.6378 36.4121 40.6378Z" fill="white"/>
<path d="M28.9043 40.6378C27.8252 40.6378 26.9987 40.3221 26.4247 39.6907C25.8507 39.0593 25.5523 38.1524 25.5293 36.97H27.8539C27.8654 38.0147 28.2327 38.537 28.956 38.537C29.3233 38.537 29.5816 38.4222 29.7308 38.1926C29.8801 37.963 29.9547 37.5957 29.9547 37.0906C29.9547 36.6888 29.8571 36.3559 29.662 36.0918C29.4668 35.8278 29.1396 35.5925 28.6804 35.3858L27.8195 34.9726C27.0503 34.6052 26.4936 34.169 26.1492 33.6639C25.8163 33.1588 25.6498 32.4528 25.6498 31.5459C25.6498 30.5357 25.9426 29.7149 26.528 29.0835C27.125 28.4522 27.9458 28.1365 28.9904 28.1365C30.0006 28.1365 30.7812 28.4464 31.3322 29.0663C31.8947 29.6862 32.1875 30.5759 32.2104 31.7353H29.9719C29.9604 31.2417 29.8858 30.8744 29.748 30.6333C29.6218 30.3807 29.375 30.2545 29.0076 30.2545C28.3533 30.2545 28.0261 30.6448 28.0261 31.4254C28.0261 31.8157 28.1065 32.1256 28.2672 32.3552C28.4394 32.5733 28.7206 32.7685 29.1109 32.9407L29.9375 33.3023C30.787 33.6926 31.4011 34.1747 31.7799 34.7487C32.1588 35.3227 32.3482 36.0918 32.3482 37.0561C32.3482 38.2041 32.044 39.088 31.4355 39.7079C30.8271 40.3278 29.9834 40.6378 28.9043 40.6378Z" fill="white"/>
<path d="M21.0874 40.6378C20.0313 40.6378 19.1933 40.3508 18.5734 39.7768C17.9535 39.2028 17.6436 38.3476 17.6436 37.2111V31.5976C17.6436 30.4726 17.9707 29.6174 18.6251 29.0319C19.2909 28.4464 20.1633 28.1537 21.2424 28.1537C22.287 28.1537 23.1136 28.4522 23.722 29.0491C24.3419 29.646 24.6518 30.5357 24.6518 31.7181V32.1658H22.1895V31.7353C22.1895 31.2762 22.0919 30.9375 21.8967 30.7194C21.7131 30.4898 21.472 30.375 21.1735 30.375C20.7717 30.375 20.4905 30.5128 20.3298 30.7883C20.1805 31.0638 20.1059 31.4713 20.1059 32.0108V36.8839C20.1059 37.9056 20.4618 38.4222 21.1735 38.4337C21.5064 38.4337 21.759 38.3131 21.9312 38.0721C22.1034 37.831 22.1895 37.4924 22.1895 37.0561V36.6945H24.6518V37.0733C24.6518 37.8654 24.4969 38.5255 24.1869 39.0536C23.877 39.5816 23.4522 39.9777 22.9127 40.2417C22.3846 40.5057 21.7762 40.6378 21.0874 40.6378Z" fill="white"/>
</svg>
