<svg width="45" height="45" viewBox="0 0 45 45" fill="none" xmlns="http://www.w3.org/2000/svg">
<g clip-path="url(#clip0_2020_1272)">
<path d="M7.96875 0V0.5625H37.0322C38.0029 0.561619 38.9646 0.756818 39.8623 1.1377C40.7602 1.51865 41.5771 2.07799 42.2656 2.78418C42.9542 3.4904 43.5011 4.33014 43.874 5.25488C44.2469 6.17956 44.4384 7.1714 44.4375 8.17285V36.8271L44.4287 37.2021C44.3876 38.0756 44.2003 38.9359 43.874 39.7451C43.5011 40.6699 42.9542 41.5096 42.2656 42.2158C41.5771 42.922 40.7602 43.4814 39.8623 43.8623C38.9646 44.2432 38.0029 44.4384 37.0322 44.4375H7.96777C6.99714 44.4384 6.03543 44.2432 5.1377 43.8623C4.23979 43.4814 3.42291 42.922 2.73438 42.2158C2.04583 41.5096 1.49894 40.6699 1.12598 39.7451C0.753089 38.8204 0.56158 37.8286 0.5625 36.8271V8.17285L0.571289 7.79785C0.612427 6.92445 0.799667 6.06406 1.12598 5.25488C1.49894 4.33014 2.04582 3.4904 2.73438 2.78418C3.42291 2.07799 4.23979 1.51865 5.1377 1.1377C6.03543 0.756817 6.99714 0.561621 7.96777 0.5625L7.96875 0Z" stroke="white" stroke-width="1.125"/>
<path d="M17.8125 36.9231C20.4013 36.9231 22.5 34.7706 22.5 32.1154V27.3077H17.8125C15.2237 27.3077 13.125 29.4602 13.125 32.1154C13.125 34.7706 15.2237 36.9231 17.8125 36.9231Z" stroke="white" stroke-width="2.25"/>
<path d="M13.125 22.5C13.125 19.8448 15.2237 17.6923 17.8125 17.6923H22.5V27.3077H17.8125C15.2237 27.3077 13.125 25.1552 13.125 22.5Z" stroke="white" stroke-width="2.25"/>
<path d="M13.125 12.8846C13.125 10.2294 15.2237 8.07693 17.8125 8.07693H22.5V17.6923H17.8125C15.2237 17.6923 13.125 15.5398 13.125 12.8846Z" stroke="white" stroke-width="2.25"/>
<path d="M22.5 8.07693H27.1875C29.7763 8.07693 31.875 10.2294 31.875 12.8846C31.875 15.5398 29.7763 17.6923 27.1875 17.6923H22.5V8.07693Z" stroke="white" stroke-width="2.25"/>
<path d="M31.875 22.5C31.875 25.1552 29.7763 27.3077 27.1875 27.3077C24.5987 27.3077 22.5 25.1552 22.5 22.5C22.5 19.8448 24.5987 17.6923 27.1875 17.6923C29.7763 17.6923 31.875 19.8448 31.875 22.5Z" stroke="white" stroke-width="2.25"/>
</g>
<defs>
<clipPath id="clip0_2020_1272">
<rect width="45" height="45" fill="white"/>
</clipPath>
</defs>
</svg>
