<svg width="45" height="45" viewBox="0 0 45 45" fill="none" xmlns="http://www.w3.org/2000/svg">
<path d="M36.0029 38.7457V29.0365H37.9667V36.9879H40.3288V38.7457H36.0029Z" fill="white"/>
<path d="M28.1064 38.7457V29.0365H30.0703L31.5397 33.8705L33.0366 29.0365H35.0004V38.7457H33.0366V33.6508L32.0478 36.9879H31.0316L30.0703 33.692V38.7457H28.1064Z" fill="white"/>
<path d="M24.0432 38.7457V30.8218H22.4502V29.0365H27.5588V30.8218H25.9933V38.7457H24.0432Z" fill="white"/>
<path d="M16.5303 38.7457V29.0365H18.4941V32.9229H19.936V29.0365H21.8998V38.7457H19.936V34.6945H18.4941V38.7457H16.5303Z" fill="white"/>
<path d="M36.1836 0.5625C40.7421 0.5625 44.4375 4.25794 44.4375 8.81641V36.1836C44.4375 40.7421 40.7421 44.4375 36.1836 44.4375H8.81641C4.25794 44.4375 0.5625 40.7421 0.5625 36.1836V0.5625H36.1836Z" stroke="white" stroke-width="1.125"/>
</svg>
