<svg width="45" height="45" viewBox="0 0 45 45" fill="none" xmlns="http://www.w3.org/2000/svg">
<rect x="0.5625" y="0.5625" width="43.875" height="43.875" rx="7.3125" stroke="white" stroke-width="1.125"/>
<path d="M15.2323 11.9446H21.8564L29.2871 32.6887H23.2171L22.1945 29.5315H14.4256L13.4031 32.6887H7.58154L15.2282 11.9446H15.2323ZM20.5853 24.6062L18.3243 17.6399L16.0633 24.6062H20.5853Z" fill="white"/>
<path d="M30.1753 13.3053C30.1753 11.8183 31.3201 10.861 33.0555 10.861C34.791 10.861 35.8421 11.8509 35.8421 13.3053C35.8421 14.7597 34.7584 15.8148 33.0555 15.8148C31.2589 15.8148 30.1753 14.8248 30.1753 13.3053ZM30.3301 16.5277H35.7484V32.6888H30.3301V16.5277Z" fill="white"/>
</svg>
