<svg width="45" height="45" viewBox="0 0 45 45" fill="none" xmlns="http://www.w3.org/2000/svg">
<rect x="0.5625" y="0.5625" width="43.875" height="43.875" rx="7.3125" stroke="white" stroke-width="1.125"/>
<path d="M10.8486 11.9446H16.6091V32.6887H10.8486V11.9446Z" fill="white"/>
<path d="M18.5767 24.6999C18.5767 19.0657 22.789 16.2466 27.1522 16.2466C27.7388 16.2466 28.358 16.3077 28.7328 16.3688V11.2928H34.1511V31.6336C32.8515 32.2854 30.2809 32.9658 27.4944 32.9658C22.7279 32.9658 18.5767 30.2729 18.5767 24.6999ZM28.7287 28.4438V20.8582C28.358 20.736 27.8936 20.6423 27.2744 20.6423C25.5715 20.6423 23.9908 21.6322 23.9908 24.6062C23.9908 27.3316 25.4167 28.57 27.3029 28.57C27.7347 28.57 28.3254 28.5375 28.7287 28.4478V28.4438Z" fill="white"/>
</svg>
