<svg width="45" height="45" viewBox="0 0 45 45" fill="none" xmlns="http://www.w3.org/2000/svg">
<path d="M36.1836 0.5625C40.7421 0.5625 44.4375 4.25794 44.4375 8.81641V36.1836C44.4375 40.7421 40.7421 44.4375 36.1836 44.4375H8.81641C4.25794 44.4375 0.5625 40.7421 0.5625 36.1836V0.5625H36.1836Z" stroke="white" stroke-width="1.125"/>
<path d="M36.4141 40.6378C35.335 40.6378 34.5085 40.3221 33.9345 39.6907C33.3605 39.0593 33.062 38.1524 33.0391 36.97H35.3637C35.3752 38.0147 35.7425 38.537 36.4657 38.537C36.8331 38.537 37.0914 38.4222 37.2406 38.1926C37.3898 37.963 37.4644 37.5957 37.4644 37.0906C37.4644 36.6888 37.3669 36.3559 37.1717 36.0918C36.9766 35.8278 36.6494 35.5925 36.1902 35.3858L35.3292 34.9726C34.5601 34.6052 34.0034 34.169 33.659 33.6639C33.3261 33.1588 33.1596 32.4528 33.1596 31.5459C33.1596 30.5357 33.4523 29.7149 34.0378 29.0835C34.6347 28.4522 35.4555 28.1365 36.5002 28.1365C37.5104 28.1365 38.291 28.4464 38.842 29.0663C39.4045 29.6862 39.6972 30.5759 39.7202 31.7353H37.4817C37.4702 31.2417 37.3956 30.8744 37.2578 30.6333C37.1315 30.3807 36.8847 30.2545 36.5174 30.2545C35.863 30.2545 35.5359 30.6448 35.5359 31.4254C35.5359 31.8157 35.6162 32.1256 35.7769 32.3552C35.9491 32.5733 36.2304 32.7685 36.6207 32.9407L37.4472 33.3023C38.2967 33.6926 38.9109 34.1747 39.2897 34.7487C39.6685 35.3227 39.8579 36.0918 39.8579 37.0561C39.8579 38.2041 39.5537 39.088 38.9453 39.7079C38.3369 40.3278 37.4931 40.6378 36.4141 40.6378Z" fill="white"/>
<path d="M28.3018 40.5V38.2615H28.5256C29.2488 38.2615 29.6104 37.8999 29.6104 37.1767V28.3259H32.0728V37.4522C32.0728 39.4841 30.9421 40.5 28.6806 40.5H28.3018Z" fill="white"/>
</svg>
