<svg width="45" height="45" viewBox="0 0 45 45" fill="none" xmlns="http://www.w3.org/2000/svg">
<rect x="0.5625" y="0.5625" width="43.875" height="43.875" rx="7.3125" stroke="white" stroke-width="1.125"/>
<path d="M15.7131 11.9446C21.5958 11.9446 24.9079 14.6985 24.9079 19.3142C24.9079 24.6999 20.4185 26.8672 16.2101 26.8672H13.3625V32.6887H7.60205V11.9446H15.7131ZM13.3625 16.8658V21.9419H15.9005C17.6645 21.9419 18.903 21.2289 18.903 19.4324C18.903 17.7906 17.8519 16.8617 16.0228 16.8617H13.3584L13.3625 16.8658Z" fill="white"/>
<path d="M26.081 31.6662L26.1136 26.8672C27.7554 27.9508 30.0449 28.6312 31.6256 28.6312C32.7092 28.6312 33.2062 28.3216 33.2062 27.7634C33.2062 27.1442 32.5259 26.8957 31.2263 26.4924C28.7168 25.7509 25.9629 24.7284 25.9629 21.4449C25.9629 18.1613 28.7168 16.2425 32.7133 16.2425C34.6036 16.2425 36.1516 16.5195 37.5123 17.1103L37.4797 21.6934C36.3961 21.0415 34.2614 20.4549 32.8681 20.4549C31.8456 20.4549 31.4423 20.7645 31.4423 21.2289C31.4423 21.7871 31.9393 21.9419 33.4221 22.4063C36.3024 23.274 38.7182 24.2029 38.7182 27.576C38.7182 30.9492 36.0865 32.9617 31.9678 32.9617C29.8005 32.9617 27.7554 32.591 26.0851 31.6621L26.081 31.6662Z" fill="white"/>
</svg>
