<svg width="45" height="45" viewBox="0 0 45 45" fill="none" xmlns="http://www.w3.org/2000/svg">
<rect x="0.5625" y="0.5625" width="43.875" height="43.875" rx="8.95673" stroke="white" stroke-width="1.125"/>
<path fill-rule="evenodd" clip-rule="evenodd" d="M29.7387 39.5902C30.2839 39.8027 30.9057 39.789 31.456 39.5243L38.5827 36.095C39.3315 35.7347 39.8078 34.9767 39.8078 34.1452V10.8927C39.8078 10.0613 39.3315 9.30337 38.5827 8.94302L31.456 5.51367C30.7338 5.16617 29.8886 5.25128 29.2548 5.71208C29.1642 5.7779 29.0779 5.8514 28.9971 5.93239L15.3538 18.3794L9.41102 13.8684C8.85781 13.4485 8.08402 13.4829 7.57023 13.9502L5.6642 15.6841C5.03573 16.2558 5.03501 17.2445 5.66264 17.8171L10.8164 22.5189L5.66264 27.2208C5.03501 27.7934 5.03573 28.7821 5.6642 29.3538L7.57023 31.0876C8.08402 31.555 8.85781 31.5894 9.41102 31.1695L15.3538 26.6584L28.9971 39.1055C29.2129 39.3214 29.4663 39.4841 29.7387 39.5902ZM31.1592 14.6608L20.807 22.5189L31.1592 30.377V14.6608Z" fill="white"/>
</svg>
